<svg width="48" height="48" viewBox="0 0 48 48" fill="none" xmlns="http://www.w3.org/2000/svg">
<path d="M24 48C37.2548 48 48 37.2548 48 24C48 10.7452 37.2548 0 24 0C10.7452 0 0 10.7452 0 24C0 37.2548 10.7452 48 24 48Z" fill="#D4AF76"/>
<path d="M24 12C17.3726 12 12 17.3726 12 24C12 30.6274 17.3726 36 24 36C30.6274 36 36 30.6274 36 24C36 17.3726 30.6274 12 24 12ZM24 32C19.5817 32 16 28.4183 16 24C16 19.5817 19.5817 16 24 16C28.4183 16 32 19.5817 32 24C32 28.4183 28.4183 32 24 32Z" fill="#0F0F0F"/>
<path d="M24 20C22.8954 20 22 20.8954 22 22V26C22 27.1046 22.8954 28 24 28C25.1046 28 26 27.1046 26 26V22C26 20.8954 25.1046 20 24 20Z" fill="#0F0F0F"/>
</svg>
