<svg width="48" height="48" viewBox="0 0 48 48" fill="none" xmlns="http://www.w3.org/2000/svg">
<path d="M24 48C37.2548 48 48 37.2548 48 24C48 10.7452 37.2548 0 24 0C10.7452 0 0 10.7452 0 24C0 37.2548 10.7452 48 24 48Z" fill="#D4AF76"/>
<path d="M26.5 30.5C26.5 30.5 27.5 30.5 28 30C28.5 29.5 28.5 28.5 28.5 28.5C28.5 28.5 30 24 31 21C31.5 20 31.5 19.5 31 19C30.5 18.5 29.5 18.5 29 18.5H25.5C25 18.5 24.5 18.5 24 19C23.5 19.5 22 21 20.5 22.5C18.5 24.5 17.5 25 17 25C16.5 25 16 24.5 16 24V21.5C16 21 16 20.5 16.5 20C17 19.5 17.5 19.5 18 19.5H21.5C22 19.5 22.5 19.5 23 19.5C23.5 19.5 24 19 24 18.5V15.5C24 15 24 14.5 24.5 14C25 13.5 25.5 13.5 26 13.5H28.5C29 13.5 29.5 13.5 30 14C30.5 14.5 30.5 15 30.5 15.5V20.5C30.5 21 30.5 21.5 31 21.5C31.5 21.5 32 21.5 32.5 21.5C33 21.5 33.5 22 33.5 22.5V25C33.5 25.5 33.5 26 33 26.5C32.5 27 32 27 31.5 27C31 27 30.5 27 30 26.5C29.5 26 28.5 25 27.5 24C27 23.5 26.5 23 26.5 22.5C26.5 22 26.5 21.5 27 21.5C27.5 21.5 28 21.5 28.5 21.5C29 21.5 29.5 22 29.5 22.5V25.5C29.5 26 29.5 26.5 30 27C30.5 27.5 31 27.5 31.5 27.5H33.5C34 27.5 34.5 27.5 35 28C35.5 28.5 35.5 29 35.5 29.5V31.5C35.5 32 35.5 32.5 35 33C34.5 33.5 34 33.5 33.5 33.5H29.5C29 33.5 28.5 33.5 28 33.5C27.5 33.5 27 33 26.5 32.5C26 32 25.5 31.5 25 31C24.5 30.5 24 30 23.5 29.5C23 29 22.5 28.5 22 28C21.5 27.5 21 27 20.5 26.5C20 26 19.5 25.5 19 25C18.5 24.5 18 24 17.5 23.5C17 23 16.5 22.5 16 22C15.5 21.5 15 21 14.5 20.5C14 20 13.5 19.5 13 19C12.5 18.5 12 18 11.5 17.5C11 17 10.5 16.5 10 16C9.5 15.5 9 15 8.5 14.5C8 14 7.5 13.5 7 13C6.5 12.5 6 12 5.5 11.5C5 11 4.5 10.5 4 10C3.5 9.5 3 9 2.5 8.5C2 8 1.5 7.5 1 7C0.5 6.5 0 6 0 5.5V3.5C0 3 0 2.5 0.5 2C1 1.5 1.5 1.5 2 1.5H6.5C7 1.5 7.5 1.5 8 2C8.5 2.5 9 3 9.5 3.5C10 4 10.5 4.5 11 5C11.5 5.5 12 6 12.5 6.5C13 7 13.5 7.5 14 8C14.5 8.5 15 9 15.5 9.5C16 10 16.5 10.5 17 11C17.5 11.5 18 12 18.5 12.5C19 13 19.5 13.5 20 14C20.5 14.5 21 15 21.5 15.5C22 16 22.5 16.5 23 17C23.5 17.5 24 18 24.5 18.5C25 19 25.5 19.5 26 20C26.5 20.5 27 21 27.5 21.5C28 22 28.5 22.5 29 23C29.5 23.5 30 24 30.5 24.5C31 25 31.5 25.5 32 26C32.5 26.5 33 27 33.5 27.5C34 28 34.5 28.5 35 29C35.5 29.5 36 30 36.5 30.5C37 31 37.5 31.5 38 32C38.5 32.5 39 33 39.5 33.5C40 34 40.5 34.5 41 35C41.5 35.5 42 36 42.5 36.5C43 37 43.5 37.5 44 38C44.5 38.5 45 39 45.5 39.5C46 40 46.5 40.5 47 41C47.5 41.5 48 42 48 42.5V44.5C48 45 48 45.5 47.5 46C47 46.5 46.5 46.5 46 46.5H26.5C26 46.5 25.5 46.5 25 46C24.5 45.5 24 45 23.5 44.5C23 44 22.5 43.5 22 43C21.5 42.5 21 42 20.5 41.5C20 41 19.5 40.5 19 40C18.5 39.5 18 39 17.5 38.5C17 38 16.5 37.5 16 37C15.5 36.5 15 36 14.5 35.5C14 35 13.5 34.5 13 34C12.5 33.5 12 33 11.5 32.5C11 32 10.5 31.5 10 31C9.5 30.5 9 30 8.5 29.5C8 29 7.5 28.5 7 28C6.5 27.5 6 27 5.5 26.5C5 26 4.5 25.5 4 25C3.5 24.5 3 24 2.5 23.5C2 23 1.5 22.5 1 22C0.5 21.5 0 21 0 20.5V18.5C0 18 0 17.5 0.5 17C1 16.5 1.5 16.5 2 16.5H26.5Z" fill="#0F0F0F"/>
</svg>
